<svg id="Layer_1" enable-background="new 0 0 512 512" height="512" viewBox="0 0 512 512" width="512" xmlns="http://www.w3.org/2000/svg"><g><path d="m256 271c-8.284 0-15-6.716-15-15v-112.467c0-8.284 6.716-15 15-15s15 6.716 15 15v112.467c0 8.284-6.716 15-15 15z" fill="#66a182"/><path d="m191.733 512h-176.733c-8.284 0-15-6.716-15-15 0-128.802 90.876-220.005 187.737-246.782 9.553-2.636 18.997 4.556 18.997 14.458v58.347c0 12.591-4.904 24.429-13.809 33.333l-48.2 48.199c-6.691 6.691-6.698 17.525 0 24.224l57.615 57.615c9.429 9.429 2.73 25.606-10.607 25.606z" fill="#d9ff7d"/><path d="m352.4 512h-160.667c-3.978 0-7.793-1.58-10.606-4.394l-57.615-57.615c-18.375-18.375-18.375-48.274 0-66.649l48.2-48.2c3.238-3.238 5.021-7.542 5.021-12.119v-58.347c0-6.745 4.502-12.661 11.004-14.458 22.13-6.116 45.097-9.218 68.263-9.218 51.491 0 101.161 15.256 143.639 44.117 7.777 5.284 8.831 16.36 2.176 23.014l-96.424 96.424c-6.683 6.684-6.697 17.526-.001 24.223l57.616 57.616c9.43 9.429 2.73 25.606-10.606 25.606z" fill="#5bc1eb"/><path d="m432.733 0h-48.216c-56.222 0-104.988 32.502-128.52 79.698-23.536-47.197-72.305-79.698-128.53-79.698h-48.2c-8.284 0-15 6.716-15 15 0 79.145 64.389 143.533 143.533 143.533h96.4c79.145 0 143.533-64.389 143.533-143.533 0-8.284-6.715-15-15-15z" fill="#d9ff7d"/><path d="m363.006 486.394-57.616-57.616c-6.696-6.696-6.682-17.538.001-24.223l96.424-96.424c6.654-6.653 5.6-17.729-2.176-23.014-42.478-28.861-92.148-44.117-143.639-44.117-.001 0-.002 0-.003 0v271h96.403c13.336 0 20.036-16.177 10.606-25.606z" fill="#418bb3"/><g fill="#97db4f"><path d="m447.733 15c0-8.284-6.716-15-15-15h-48.216c-56.222 0-104.988 32.502-128.52 79.698v78.835h48.203c79.145 0 143.533-64.388 143.533-143.533z"/><path d="m497 512h-144.6c-3.978 0-7.793-1.58-10.606-4.394l-57.615-57.615c-18.4-18.396-18.432-48.217 0-66.649l96.424-96.424c5.091-5.091 13.083-5.848 19.037-1.8 70.356 47.811 112.36 127.019 112.36 211.882 0 8.284-6.716 15-15 15z"/></g></g></svg>